<?xml version="1.0" encoding="UTF-8"?>
<!DOCTYPE svg PUBLIC "-//W3C//DTD SVG 1.1//EN" "http://www.w3.org/Graphics/SVG/1.1/DTD/svg11.dtd">
<!-- Creator: CorelDRAW 2019 (64-Bit) -->
<svg xmlns="http://www.w3.org/2000/svg" xml:space="preserve" width="93.6159mm" height="107.516mm" version="1.1" shape-rendering="geometricPrecision" text-rendering="geometricPrecision" image-rendering="optimizeQuality" fill-rule="evenodd" clip-rule="evenodd"
viewBox="0 0 9707.03 11148.39"
 xmlns:xlink="http://www.w3.org/1999/xlink"
 xmlns:xodm="http://www.corel.com/coreldraw/odm/2003">
 <g id="Capa_x0020_1">
  <metadata id="CorelCorpID_0Corel-Layer"/>
  <g id="_2124177340704">
   <path fill="white" d="M2176.1 2619.59l0 0zm-222.47 -222.01l0 0zm-1445.63 -836.2l0 0zm-460.77 -1561.38l8069.89 0 1.37 0.47c249.99,3.46 485.65,64.51 694.29,170.36 217,110.13 405.15,268.46 550.18,460.71 17.52,23.13 34.21,46.46 49.93,69.79l0 0.47c16.08,23.9 31.49,48.12 46.04,72.51 72.01,120.67 128.54,252.12 166.74,391.43 36.84,134.35 56.46,275.88 56.3,421.79 -0.07,51.89 -2.58,102.63 -7.33,152.02 -5.03,52.26 -12.26,102.38 -21.51,150.25l-18.46 95.39 -5286.02 0 3268 3267.99 -2807.55 0 -1002.51 -1002.47 0 -0.45 -549.86 -549.85 -0.45 0 -982.66 -982.67 0 -0.45 -97.77 -97.47 -222.01 -222.47 -367.72 -367.56 -46.76 -46.75c-52.91,-1.41 -103.76,-5.24 -152.4,-11.32 -65.95,-8.24 -130.58,-20.57 -193.51,-36.6 -69.44,-17.76 -138.63,-40.78 -207.02,-68.76 -69.25,-28.3 -134.83,-60.57 -196.34,-96.34 -33.25,-19.29 -65.51,-39.6 -96.63,-60.81 -29.6,-20.16 -60.34,-42.88 -92.04,-67.99 -18.59,-14.71 -34.23,-27.53 -47.16,-38.6 -16.34,-14.03 -31.83,-27.81 -46.07,-41.46 -159.68,-147.96 -288.74,-328 -376.69,-529.67 -84.82,-194.44 -131.77,-409.34 -131.53,-635.2 0.07,-51.77 2.55,-102.44 7.3,-151.76 4.97,-51.87 12.16,-101.65 21.38,-149.13l18.55 -95.39z"/>
   <path fill="white" d="M4817.09 8688.13l0 0zm-4215.91 813.2l0 0zm2846.32 -2250.6l0 0zm494.81 -494.37l0 0zm866.81 -867.21l2807.55 0 -2700.97 2700.98 -0.45 0 -97.95 98.24 -468.79 468.77 5286.18 0 18.46 95.38c9.25,47.85 16.48,97.98 21.51,150.19 4.75,49.4 7.26,100.12 7.33,151.93 0.16,145.96 -19.46,287.46 -56.29,421.81 -38.18,139.32 -94.73,270.8 -166.75,391.56 -16.08,26.96 -31.34,51.09 -45.71,72.43 -15.77,23.41 -32.57,46.91 -50.26,70.34 -145.03,192.24 -333.18,350.58 -550.18,460.69 -208.63,105.86 -444.3,166.9 -694.29,170.37l-1.37 0.47 -8069.91 0 -18.53 -95.39c-9.22,-47.57 -16.41,-97.39 -21.38,-149.25 -4.75,-49.31 -7.23,-99.94 -7.3,-151.64 -0.24,-225.94 46.69,-440.87 131.51,-635.33 88.01,-201.75 217.14,-381.92 376.95,-529.92l0 -0.45c14.15,-13.05 29.5,-26.71 46.1,-40.91 12.65,-10.83 28.23,-23.57 46.43,-38.33 29.74,-23.62 60.51,-46.34 92.28,-68.01 31.16,-21.27 63.49,-41.61 96.83,-60.95 61.51,-35.72 127.09,-67.93 196.34,-96.25 69.05,-28.21 138.21,-51.32 207.02,-68.85l0.47 0c63.36,-16.07 127.89,-28.34 193.23,-36.49 48.6,-6.07 99.38,-9.86 152.21,-11.26l46.77 -46.77 0 -0.46 1861.58 -1861.11 494.35 -494.82 867.04 -866.99z"/>
  </g>
  <g id="_2124177352512">
   <path fill="#13286B" d="M2201.14 2625.66l0 0zm-222.47 -222.01l0 0zm-1445.63 -836.2l0 0zm-460.77 -1561.38l8069.89 0 1.37 0.47c249.99,3.46 485.65,64.51 694.29,170.36 217,110.13 405.15,268.46 550.18,460.71 17.52,23.13 34.21,46.46 49.93,69.79l0 0.47c16.08,23.9 31.49,48.12 46.04,72.51 72.01,120.67 128.54,252.12 166.74,391.43 36.84,134.35 56.46,275.88 56.3,421.79 -0.07,51.89 -2.58,102.63 -7.33,152.02 -5.03,52.26 -12.26,102.38 -21.51,150.25l-18.46 95.39 -5286.02 0 3268 3267.99 -2807.55 0 -1002.51 -1002.47 0 -0.45 -549.86 -549.85 -0.45 0 -982.66 -982.67 0 -0.45 -97.77 -97.47 -222.01 -222.47 -367.72 -367.56 -46.76 -46.75c-52.91,-1.41 -103.76,-5.24 -152.4,-11.32 -65.95,-8.24 -130.58,-20.57 -193.51,-36.6 -69.44,-17.76 -138.63,-40.78 -207.02,-68.76 -69.25,-28.3 -134.83,-60.57 -196.34,-96.34 -33.25,-19.29 -65.51,-39.6 -96.63,-60.81 -29.6,-20.16 -60.34,-42.88 -92.04,-67.99 -18.59,-14.71 -34.23,-27.53 -47.16,-38.6 -16.34,-14.03 -31.83,-27.81 -46.07,-41.46 -159.68,-147.96 -288.74,-328 -376.69,-529.67 -84.82,-194.44 -131.77,-409.34 -131.53,-635.2 0.07,-51.77 2.55,-102.44 7.3,-151.76 4.97,-51.87 12.16,-101.65 21.38,-149.13l18.55 -95.39z"/>
   <path fill="#13286B" d="M4842.13 8694.2l0 0zm-4215.91 813.2l0 0zm2846.32 -2250.6l0 0zm494.81 -494.37l0 0zm866.81 -867.21l2807.55 0 -2700.97 2700.98 -0.45 0 -97.95 98.24 -468.79 468.77 5286.18 0 18.46 95.38c9.25,47.85 16.48,97.98 21.51,150.19 4.75,49.4 7.26,100.12 7.33,151.93 0.16,145.96 -19.46,287.46 -56.29,421.81 -38.18,139.32 -94.73,270.8 -166.75,391.56 -16.08,26.96 -31.34,51.09 -45.71,72.43 -15.77,23.41 -32.57,46.91 -50.26,70.34 -145.03,192.24 -333.18,350.58 -550.18,460.69 -208.63,105.86 -444.3,166.9 -694.29,170.37l-1.37 0.47 -8069.91 0 -18.53 -95.39c-9.22,-47.57 -16.41,-97.39 -21.38,-149.25 -4.75,-49.31 -7.23,-99.94 -7.3,-151.64 -0.24,-225.94 46.69,-440.87 131.51,-635.33 88.01,-201.75 217.14,-381.92 376.95,-529.92l0 -0.45c14.15,-13.05 29.5,-26.71 46.1,-40.91 12.65,-10.83 28.23,-23.57 46.43,-38.33 29.74,-23.62 60.51,-46.34 92.28,-68.01 31.16,-21.27 63.49,-41.61 96.83,-60.95 61.51,-35.72 127.09,-67.93 196.34,-96.25 69.05,-28.21 138.21,-51.32 207.02,-68.85l0.47 0c63.36,-16.07 127.89,-28.34 193.23,-36.49 48.6,-6.07 99.38,-9.86 152.21,-11.26l46.77 -46.77 0 -0.46 1861.58 -1861.11 494.35 -494.82 867.04 -866.99z"/>
  </g>
 </g>
</svg>
