<?xml version="1.0" encoding="UTF-8"?>
<!DOCTYPE svg PUBLIC "-//W3C//DTD SVG 1.1//EN" "http://www.w3.org/Graphics/SVG/1.1/DTD/svg11.dtd">
<!-- Creator: CorelDRAW 2019 (64-Bit) -->
<svg xmlns="http://www.w3.org/2000/svg" xml:space="preserve" width="207.765mm" height="207.765mm" version="1.1" shape-rendering="geometricPrecision" text-rendering="geometricPrecision" image-rendering="optimizeQuality" fill-rule="evenodd" clip-rule="evenodd"
viewBox="0 0 20645.27 20645.27"
 xmlns:xlink="http://www.w3.org/1999/xlink"
 xmlns:xodm="http://www.corel.com/coreldraw/odm/2003">
 <defs>
   <radialGradient id="id0" gradientUnits="userSpaceOnUse" gradientTransform="matrix(1 -0 -0 0.983958 0 166)" cx="10322.64" cy="10322.63" r="4916.45" fx="10322.64" fy="10322.63">
    <stop offset="0" stop-opacity="1" stop-color="#132A75"/>
    <stop offset="0.611765" stop-opacity="1" stop-color="#142561"/>
    <stop offset="1" stop-opacity="1" stop-color="#14214D"/>
   </radialGradient>
 </defs>
 <g id="Capa_x0020_1">
  <metadata id="CorelCorpID_0Corel-Layer"/>
  <rect fill="url(#id0)" x="0" y="-0.01" width="20645.27" height="20645.27"/>
  <g id="_2125024259984">
   <path fill="white" d="M7965.83 6608.21l0 0zm-196.75 -196.35l0 0zm-1278.5 -739.52l0 0zm-407.5 -1380.88l7136.94 0 1.2 0.42c221.08,3.06 429.51,57.05 614.03,150.67 191.92,97.39 358.31,237.42 486.58,407.43 15.49,20.47 30.25,41.1 44.16,61.73l0 0.42c14.22,21.14 27.84,42.56 40.7,64.12 63.69,106.73 113.69,222.97 147.47,346.18 32.58,118.81 49.93,243.98 49.79,373.03 -0.06,45.89 -2.28,90.76 -6.48,134.45 -4.44,46.22 -10.84,90.54 -19.02,132.88l-16.33 84.36 -4674.91 0 2890.18 2890.18 -2482.97 0 -886.6 -886.58 0 -0.4 -486.29 -486.28 -0.4 0 -869.05 -869.05 0 -0.4 -86.46 -86.2 -196.35 -196.75 -325.2 -325.06 -41.35 -41.36c-46.8,-1.24 -91.77,-4.63 -134.79,-10.01 -58.32,-7.29 -115.48,-18.19 -171.13,-32.37 -61.42,-15.71 -122.61,-36.06 -183.09,-60.8 -61.25,-25.03 -119.23,-53.57 -173.64,-85.21 -29.41,-17.06 -57.93,-35.02 -85.47,-53.78 -26.17,-17.83 -53.35,-37.93 -81.38,-60.14 -16.46,-13.01 -30.28,-24.34 -41.71,-34.13 -14.45,-12.41 -28.15,-24.6 -40.74,-36.66 -141.22,-130.86 -255.36,-290.1 -333.14,-468.44 -75.01,-171.97 -116.53,-362.01 -116.32,-561.78 0.06,-45.78 2.26,-90.58 6.46,-134.21 4.39,-45.87 10.75,-89.89 18.91,-131.89l16.4 -84.36z"/>
   <path fill="white" d="M10301.49 11975.16l0 0zm-3728.5 719.19l0 0zm2517.25 -1990.4l0 0zm437.6 -437.22l0 0zm766.6 -766.95l2482.97 0 -2388.71 2388.72 -0.4 0 -86.61 86.87 -414.59 414.58 4675.04 0 16.33 84.36c8.18,42.32 14.58,86.65 19.02,132.83 4.2,43.68 6.42,88.55 6.48,134.37 0.14,129.09 -17.21,254.22 -49.78,373.04 -33.77,123.22 -83.78,239.5 -147.48,346.3 -14.22,23.85 -27.7,45.18 -40.41,64.05 -13.95,20.71 -28.81,41.49 -44.45,62.21 -128.26,170.01 -294.66,310.05 -486.58,407.44 -184.52,93.61 -392.94,147.6 -614.03,150.66l-1.2 0.42 -7136.95 0 -16.39 -84.36c-8.16,-42.07 -14.52,-86.12 -18.91,-132 -4.2,-43.6 -6.4,-88.38 -6.46,-134.1 -0.21,-199.83 41.3,-389.9 116.31,-561.88 77.83,-178.43 192.04,-337.77 333.37,-468.66l0 -0.4c12.52,-11.54 26.08,-23.62 40.77,-36.17 11.19,-9.58 24.97,-20.85 41.06,-33.9 26.3,-20.9 53.53,-40.99 81.62,-60.15 27.56,-18.81 56.14,-36.8 85.64,-53.91 54.4,-31.59 112.4,-60.07 173.64,-85.11 61.06,-24.96 122.23,-45.39 183.09,-60.9l0.41 0c56.04,-14.21 113.11,-25.06 170.89,-32.26 42.98,-5.37 87.88,-8.71 134.6,-9.96l41.37 -41.37 0 -0.41 1646.36 -1645.94 437.2 -437.62 766.79 -766.75z"/>
  </g>
  <path fill="white" fill-rule="nonzero" d="M5456.18 17000.01l-244.05 0 0 -1695.23 1079.96 0 0 249.48 -816.45 0 0 480.42 760.31 0 0 249.47 -760.31 0 0 715.86 -19.47 0zm1350.27 -840.67c-61.42,64.96 -95.61,157.96 -95.61,266.76 0,108.81 34.19,201.82 95.61,266.77 59.36,62.8 144.79,99.77 249.87,99.77 105.08,0 190.51,-36.96 249.87,-99.77 61.42,-64.96 95.61,-157.97 95.61,-266.77 0,-108.81 -34.19,-201.81 -95.61,-266.76 -59.36,-62.8 -144.79,-99.77 -249.87,-99.77 -105.08,0 -190.51,36.96 -249.87,99.77zm-181.45 693.68c-110.22,-108.92 -177.68,-259.77 -177.68,-426.92 0,-167.15 67.48,-318.01 177.7,-426.91 109.59,-108.3 261.5,-175.07 431.3,-175.07 169.83,0 321.71,66.77 431.32,175.05 110.21,108.92 177.68,259.78 177.68,426.93 0,167.15 -67.46,318 -177.68,426.92 -109.6,108.3 -261.49,175.07 -431.32,175.07 -169.81,0 -321.7,-66.77 -431.32,-175.07zm1495.74 147l-230.01 0 0 -1147.81 249.47 0 0 127.78c28.46,-38.31 65.95,-71.25 108.63,-96.79 62.27,-37.28 135.86,-59.05 208.77,-59.05 17.38,0 34.93,1.28 51.9,3.82 16.58,2.48 32.74,6.25 47.84,11.28l13.82 4.61 -10.96 265.7 -23.31 -6.2c-16.98,-4.52 -33.99,-8.53 -50.59,-11.33 -16.12,-2.71 -32.01,-4.37 -47.41,-4.37 -98.71,0 -174.2,26.76 -224.07,82.48 -49.03,54.81 -74.63,138.66 -74.63,253.66l0 576.25 -19.47 0zm865.58 0l-230.01 0 0 -1147.81 235.43 0 0 129.66c26.61,-33.38 66.99,-69.79 118.58,-98.95 59.95,-33.91 135.39,-58.78 222.24,-58.78 85.46,0 157.86,18.51 218.24,54.87 51.64,31.09 94.23,75.1 128.47,131.63 35.26,-53.96 82.02,-96.45 134.35,-127.14 67.04,-39.33 143.27,-59.36 216.08,-59.36 178.23,0 288.61,64.23 354.67,161.17 65.17,95.61 85.88,222.22 85.88,349.58l0 665.14 -249.48 0 0 -637.08c0,-81.31 -8.27,-158.88 -40.39,-214.92 -30.77,-53.68 -85.22,-88.44 -178.76,-88.44 -90.42,0 -154.26,28.62 -196.03,77.98 -47.04,55.6 -67.57,138.36 -67.57,237.09l0 625.36 -249.46 0 0 -599.64c0,-102.55 -7.2,-189.93 -38.45,-250.2 -29.58,-57.09 -82.78,-90.6 -176.04,-90.6 -75.1,0 -145.87,30.06 -195.55,93.05 -44.62,56.61 -72.73,140.01 -72.73,252.43l0 594.96 -19.47 0zm2554.63 -1147.81l230.01 0 0 1147.81 -249.47 0 0 -127.95c-29.7,39.67 -69.73,73.62 -117.39,99.59 -65.46,35.66 -145.43,56.43 -232.78,56.43 -119.66,0 -231.31,-38.41 -309.91,-121.11 -68.91,-72.54 -111.92,-178.53 -111.92,-321.79l0 -732.98 249.47 0 0 674.49c0,90.75 23.41,154.61 60.72,196.75 43.1,48.69 105.76,69.2 172.46,69.2 86.45,0 161.77,-28.76 213.47,-90.64 47.5,-56.87 75.87,-142.2 75.87,-259.51l0 -590.29 19.47 0zm1153.32 1147.81l-244.04 0 0 -1445.75 -533.39 0 0 -249.48 1330.28 0 0 249.48 -533.39 0 0 1445.75 -19.47 0zm1526.05 -571.57l0 94.32 -888.33 0c5.36,78.86 43.06,145.22 99.38,193.78 66.43,57.29 158.73,90.14 254.82,90.14 60.7,0 113.1,-15.42 159.86,-42.66 47.49,-27.64 89.66,-67.65 129.2,-116.23l11.89 -14.62 189.49 144.91 -11.88 15.48c-60.43,78.53 -132.45,137.21 -216.9,176.26 -84.19,38.93 -180.5,58.26 -289.74,58.26 -177.36,0 -322.57,-62.81 -424.71,-167.05 -106.3,-108.48 -165.57,-261.49 -165.57,-434.93 0,-172 62.84,-322.94 168.86,-430.71 105.29,-106.98 252.94,-171.26 423.77,-171.26 182.93,0 315.17,63.91 405.25,161.39 108.21,117.12 154.62,282.36 154.62,442.92zm-788.49 -308.76c-58.37,54.79 -93.89,127.43 -99.66,195.72l623.77 0c-5.55,-83.03 -32.71,-154.63 -82.65,-204.93 -49.17,-49.53 -121.25,-78.99 -217.54,-78.99 -91.51,0 -168.18,35.87 -223.93,88.2zm1793.36 -246.38c72.85,30.02 139.26,74.72 194.75,134.93l13.22 14.35 -187.63 171.07 -13.13 -13.92c-36.89,-39.14 -74.77,-68.71 -117.1,-88.36 -42.11,-19.54 -89.19,-29.46 -144.8,-29.46 -102.19,0 -180.56,38.71 -234.67,100.12 -61.16,69.45 -92.1,168.15 -92.1,273.42 0,101.56 34.84,192.99 96.46,257.81 58.46,61.53 141.46,99.37 242.01,99.37 55.58,0 102.6,-9.9 143.77,-29.38 41.25,-19.53 77.21,-48.89 110.52,-87.76l13.67 -15.98 177.58 177.57 -12.4 13.75c-54.87,60.69 -119.2,104.03 -189.7,132.63 -76.16,30.85 -159.43,44.62 -245.77,44.62 -176.25,0 -326.19,-61.29 -432.17,-166.84 -105.79,-105.37 -167.47,-254.52 -167.47,-430.45 0,-176.95 61.21,-328.62 167.6,-435.87 105.28,-106.15 254.49,-168.45 432.03,-168.45 85.22,0 168.76,15.29 245.32,46.83z"/>
  <g id="_2125024271536">
   <path fill="white" d="M7965.83 6608.21l0 0zm-196.75 -196.35l0 0zm-1278.5 -739.52l0 0zm-407.5 -1380.88l7136.94 0 1.2 0.42c221.08,3.06 429.51,57.05 614.03,150.67 191.92,97.39 358.31,237.42 486.58,407.43 15.49,20.47 30.25,41.1 44.16,61.73l0 0.42c14.22,21.14 27.84,42.56 40.7,64.12 63.69,106.73 113.69,222.97 147.47,346.18 32.58,118.81 49.93,243.98 49.79,373.03 -0.06,45.89 -2.28,90.76 -6.48,134.45 -4.44,46.22 -10.84,90.54 -19.02,132.88l-16.33 84.36 -4674.91 0 2890.18 2890.18 -2482.97 0 -886.6 -886.58 0 -0.4 -486.29 -486.28 -0.4 0 -869.05 -869.05 0 -0.4 -86.46 -86.2 -196.35 -196.75 -325.2 -325.06 -41.35 -41.36c-46.8,-1.24 -91.77,-4.63 -134.79,-10.01 -58.32,-7.29 -115.48,-18.19 -171.13,-32.37 -61.42,-15.71 -122.61,-36.06 -183.09,-60.8 -61.25,-25.03 -119.23,-53.57 -173.64,-85.21 -29.41,-17.06 -57.93,-35.02 -85.47,-53.78 -26.17,-17.83 -53.35,-37.93 -81.38,-60.14 -16.46,-13.01 -30.28,-24.34 -41.71,-34.13 -14.45,-12.41 -28.15,-24.6 -40.74,-36.66 -141.22,-130.86 -255.36,-290.1 -333.14,-468.44 -75.01,-171.97 -116.53,-362.01 -116.32,-561.78 0.06,-45.78 2.26,-90.58 6.46,-134.21 4.39,-45.87 10.75,-89.89 18.91,-131.89l16.4 -84.36z"/>
   <path fill="white" d="M10301.49 11975.16l0 0zm-3728.5 719.19l0 0zm2517.25 -1990.4l0 0zm437.6 -437.22l0 0zm766.6 -766.95l2482.97 0 -2388.71 2388.72 -0.4 0 -86.61 86.87 -414.59 414.58 4675.04 0 16.33 84.36c8.18,42.32 14.58,86.65 19.02,132.83 4.2,43.68 6.42,88.55 6.48,134.37 0.14,129.09 -17.21,254.22 -49.78,373.04 -33.77,123.22 -83.78,239.5 -147.48,346.3 -14.22,23.85 -27.7,45.18 -40.41,64.05 -13.95,20.71 -28.81,41.49 -44.45,62.21 -128.26,170.01 -294.66,310.05 -486.58,407.44 -184.52,93.61 -392.94,147.6 -614.03,150.66l-1.2 0.42 -7136.95 0 -16.39 -84.36c-8.16,-42.07 -14.52,-86.12 -18.91,-132 -4.2,-43.6 -6.4,-88.38 -6.46,-134.1 -0.21,-199.83 41.3,-389.9 116.31,-561.88 77.83,-178.43 192.04,-337.77 333.37,-468.66l0 -0.4c12.52,-11.54 26.08,-23.62 40.77,-36.17 11.19,-9.58 24.97,-20.85 41.06,-33.9 26.3,-20.9 53.53,-40.99 81.62,-60.15 27.56,-18.81 56.14,-36.8 85.64,-53.91 54.4,-31.59 112.4,-60.07 173.64,-85.11 61.06,-24.96 122.23,-45.39 183.09,-60.9l0.41 0c56.04,-14.21 113.11,-25.06 170.89,-32.26 42.98,-5.37 87.88,-8.71 134.6,-9.96l41.37 -41.37 0 -0.41 1646.36 -1645.94 437.2 -437.62 766.79 -766.75z"/>
  </g>
 </g>
</svg>
