<?xml version="1.0" encoding="UTF-8"?>
<!DOCTYPE svg PUBLIC "-//W3C//DTD SVG 1.1//EN" "http://www.w3.org/Graphics/SVG/1.1/DTD/svg11.dtd">
<!-- Creator: CorelDRAW 2019 (64-Bit) -->
<svg xmlns="http://www.w3.org/2000/svg" xml:space="preserve" width="103.102mm" height="128.376mm" version="1.1" shape-rendering="geometricPrecision" text-rendering="geometricPrecision" image-rendering="optimizeQuality" fill-rule="evenodd" clip-rule="evenodd"
viewBox="0 0 10183.83 12680.27"
 xmlns:xlink="http://www.w3.org/1999/xlink"
 xmlns:xodm="http://www.corel.com/coreldraw/odm/2003">
 <g id="Capa_x0020_1">
  <metadata id="CorelCorpID_0Corel-Layer"/>
  <g id="_2124637807552">
   <path fill="white" stroke="#FFFFFF" stroke-width="19.75" stroke-miterlimit="22.9256" d="M2747.13 2312.78l0 0zm-195.57 -195.18l0 0zm-1270.86 -735.1l0 0zm-405.06 -1372.63l7094.3 0 1.2 0.41c219.76,3.04 426.94,56.71 610.36,149.77 190.77,96.81 356.17,236 483.67,405 15.4,20.35 30.07,40.85 43.9,61.36l0 0.41c14.13,21.01 27.68,42.31 40.46,63.74 63.3,106.09 113.01,221.64 146.59,344.11 32.39,118.1 49.63,242.52 49.5,370.8 -0.06,45.61 -2.26,90.22 -6.44,133.64 -4.42,45.94 -10.78,90 -18.91,132.08l-16.23 83.86 -4646.97 0 2872.92 2872.92 -2468.14 0 -881.31 -881.29 0 -0.4 -483.38 -483.37 -0.4 0 -863.86 -863.86 0 -0.4 -85.94 -85.69 -195.18 -195.57 -323.26 -323.12 -41.1 -41.11c-46.52,-1.23 -91.22,-4.6 -133.99,-9.95 -57.97,-7.25 -114.79,-18.09 -170.11,-32.18 -61.05,-15.62 -121.88,-35.85 -181.99,-60.44 -60.88,-24.88 -118.52,-53.25 -172.6,-84.7 -29.24,-16.96 -57.59,-34.81 -84.96,-53.46 -26.02,-17.72 -53.03,-37.7 -80.9,-59.78 -16.36,-12.93 -30.1,-24.19 -41.47,-33.93 -14.36,-12.34 -27.98,-24.46 -40.5,-36.44 -140.38,-130.08 -253.83,-288.36 -331.15,-465.64 -74.56,-170.94 -115.83,-359.85 -115.63,-558.42 0.06,-45.51 2.24,-90.04 6.42,-133.4 4.37,-45.59 10.69,-89.35 18.8,-131.1l16.3 -83.86z"/>
   <path fill="white" stroke="#FFFFFF" stroke-width="19.75" stroke-miterlimit="22.9256" d="M5068.83 7647.66l0 0zm-3706.23 714.89l0 0zm2502.21 -1978.51l0 0zm434.98 -434.61l0 0zm762.02 -762.37l2468.14 0 -2374.44 2374.45 -0.4 0 -86.09 86.35 -412.12 412.11 4647.1 0 16.23 83.86c8.13,42.07 14.49,86.13 18.91,132.03 4.18,43.42 6.38,88.02 6.44,133.56 0.14,128.32 -17.11,252.7 -49.49,370.81 -33.56,122.48 -83.28,238.07 -146.6,344.23 -14.13,23.71 -27.54,44.91 -40.17,63.67 -13.87,20.58 -28.63,41.24 -44.18,61.84 -127.5,168.99 -292.9,308.2 -483.67,405.01 -183.41,93.06 -390.59,146.72 -610.36,149.76l-1.2 0.41 -7094.31 0 -16.29 -83.86c-8.11,-41.82 -14.43,-85.61 -18.8,-131.21 -4.18,-43.34 -6.36,-87.85 -6.42,-133.3 -0.21,-198.64 41.05,-387.57 115.62,-558.52 77.36,-177.36 190.89,-335.75 331.38,-465.86l0 -0.4c12.45,-11.47 25.93,-23.48 40.53,-35.95 11.12,-9.52 24.82,-20.72 40.81,-33.7 26.15,-20.77 53.21,-40.74 81.13,-59.79 27.4,-18.7 55.81,-36.58 85.12,-53.59 54.08,-31.4 111.72,-59.71 172.6,-84.6 60.7,-24.81 121.5,-45.12 181.99,-60.54l0.4 0c55.71,-14.12 112.44,-24.91 169.87,-32.07 42.72,-5.33 87.36,-8.66 133.8,-9.9l41.12 -41.12 0 -0.4 1636.53 -1636.11 434.59 -435 762.21 -762.17z"/>
  </g>
  <path fill="#FFFFFF" fill-rule="nonzero" stroke="#F2F2F4" stroke-width="19.75" stroke-miterlimit="22.9256" d="M252.47 12642.49l-242.59 0 0 -1685.1 1073.51 0 0 247.99 -811.57 0 0 477.55 755.76 0 0 247.98 -755.76 0 0 711.58 -19.35 0zm1342.21 -835.65c-61.05,64.57 -95.04,157.01 -95.04,265.17 0,108.16 33.99,200.61 95.04,265.18 59.01,62.43 143.92,99.17 248.38,99.17 104.45,0 189.37,-36.74 248.38,-99.17 61.05,-64.57 95.04,-157.02 95.04,-265.18 0,-108.16 -33.99,-200.6 -95.04,-265.17 -59.01,-62.43 -143.92,-99.17 -248.38,-99.17 -104.45,0 -189.37,36.74 -248.38,99.17zm-180.36 689.53c-109.56,-108.27 -176.62,-258.22 -176.62,-424.36 0,-166.15 67.08,-316.11 176.64,-424.35 108.94,-107.65 259.93,-174.02 428.72,-174.02 168.82,0 319.79,66.37 428.74,174 109.55,108.27 176.62,258.23 176.62,424.37 0,166.15 -67.06,316.1 -176.62,424.36 -108.95,107.65 -259.93,174.02 -428.74,174.02 -168.8,0 -319.78,-66.37 -428.74,-174.02zm1486.8 146.12l-228.63 0 0 -1140.95 247.98 0 0 127.01c28.29,-38.08 65.56,-70.82 107.98,-96.22 61.9,-37.06 135.04,-58.7 207.53,-58.7 17.28,0 34.72,1.27 51.59,3.79 16.49,2.47 32.55,6.21 47.55,11.21l13.74 4.58 -10.89 264.11 -23.17 -6.16c-16.88,-4.49 -33.79,-8.47 -50.29,-11.26 -16.02,-2.7 -31.82,-4.35 -47.13,-4.35 -98.12,0 -173.16,26.6 -222.73,81.98 -48.74,54.48 -74.18,137.83 -74.18,252.14l0 572.8 -19.35 0zm860.4 0l-228.63 0 0 -1140.95 234.03 0 0 128.88c26.45,-33.18 66.59,-69.37 117.87,-98.36 59.59,-33.71 134.58,-58.43 220.91,-58.43 84.95,0 156.91,18.4 216.94,54.54 51.33,30.91 93.67,74.65 127.71,130.85 35.05,-53.63 81.53,-95.87 133.54,-126.38 66.64,-39.09 142.41,-59.01 214.79,-59.01 177.16,0 286.89,63.85 352.56,160.2 64.78,95.04 85.37,220.89 85.37,347.49l0 661.17 -247.99 0 0 -633.27c0,-80.83 -8.22,-157.93 -40.15,-213.64 -30.59,-53.36 -84.71,-87.91 -177.7,-87.91 -89.87,0 -153.34,28.45 -194.86,77.52 -46.76,55.26 -67.17,137.53 -67.17,235.68l0 621.63 -247.97 0 0 -596.05c0,-101.94 -7.16,-188.8 -38.22,-248.7 -29.41,-56.75 -82.29,-90.06 -174.99,-90.06 -74.65,0 -145,29.88 -194.38,92.49 -44.35,56.27 -72.29,139.17 -72.29,250.93l0 591.4 -19.35 0zm2539.36 -1140.95l228.63 0 0 1140.95 -247.98 0 0 -127.18c-29.52,39.43 -69.31,73.18 -116.69,98.99 -65.07,35.45 -144.56,56.09 -231.39,56.09 -118.94,0 -229.93,-38.18 -308.06,-120.39 -68.5,-72.11 -111.25,-177.47 -111.25,-319.87l0 -728.6 247.98 0 0 670.46c0,90.21 23.27,153.68 60.36,195.57 42.84,48.4 105.13,68.79 171.43,68.79 85.93,0 160.8,-28.59 212.2,-90.1 47.21,-56.53 75.41,-141.35 75.41,-257.96l0 -586.76 19.35 0zm1146.43 1140.95l-242.58 0 0 -1437.11 -530.2 0 0 -247.99 1322.33 0 0 247.99 -530.2 0 0 1437.11 -19.35 0zm1516.93 -568.15l0 93.76 -883.02 0c5.32,78.39 42.8,144.35 98.78,192.62 66.03,56.94 157.78,89.6 253.3,89.6 60.34,0 112.43,-15.33 158.91,-42.4 47.2,-27.48 89.12,-67.25 128.43,-115.54l11.82 -14.53 188.35 144.04 -11.81 15.39c-60.06,78.06 -131.66,136.39 -215.6,175.21 -83.69,38.7 -179.42,57.91 -288.01,57.91 -176.3,0 -320.64,-62.44 -422.17,-166.05 -105.67,-107.83 -164.58,-259.93 -164.58,-432.34 0,-170.97 62.46,-321.01 167.85,-428.14 104.66,-106.34 251.43,-170.24 421.23,-170.24 181.83,0 313.28,63.53 402.83,160.43 107.57,116.42 153.69,280.68 153.69,440.28zm-783.78 -306.91c-58.02,54.46 -93.33,126.67 -99.06,194.55l620.05 0c-5.52,-82.54 -32.52,-153.7 -82.16,-203.7 -48.87,-49.23 -120.52,-78.52 -216.24,-78.52 -90.96,0 -167.18,35.66 -222.59,87.67zm1782.64 -244.91c72.41,29.84 138.43,74.28 193.59,134.13l13.14 14.26 -186.51 170.05 -13.05 -13.84c-36.67,-38.91 -74.33,-68.3 -116.4,-87.83 -41.86,-19.42 -88.66,-29.29 -143.93,-29.29 -101.58,0 -179.48,38.48 -233.27,99.53 -60.8,69.03 -91.55,167.15 -91.55,271.79 0,100.96 34.63,191.84 95.88,256.27 58.11,61.16 140.62,98.77 240.57,98.77 55.24,0 101.98,-9.84 142.91,-29.21 41,-19.41 76.75,-48.6 109.86,-87.24l13.59 -15.88 176.52 176.51 -12.33 13.67c-54.54,60.33 -118.49,103.41 -188.57,131.83 -75.7,30.67 -158.47,44.35 -244.3,44.35 -175.2,0 -324.24,-60.92 -429.59,-165.84 -105.16,-104.74 -166.46,-253 -166.46,-427.88 0,-175.9 60.85,-326.66 166.6,-433.26 104.65,-105.51 252.97,-167.44 429.45,-167.44 84.71,0 167.75,15.2 243.85,46.55z"/>
  <g id="_2124637794656">
   <path fill="#FFFFFF" stroke="#F2F2F4" stroke-width="19.75" stroke-miterlimit="22.9256" d="M2747.13 2312.78l0 0zm-195.57 -195.18l0 0zm-1270.86 -735.1l0 0zm-405.06 -1372.63l7094.3 0 1.2 0.41c219.76,3.04 426.94,56.71 610.36,149.77 190.77,96.81 356.17,236 483.67,405 15.4,20.35 30.07,40.85 43.9,61.36l0 0.41c14.13,21.01 27.68,42.31 40.46,63.74 63.3,106.09 113.01,221.64 146.59,344.11 32.39,118.1 49.63,242.52 49.5,370.8 -0.06,45.61 -2.26,90.22 -6.44,133.64 -4.42,45.94 -10.78,90 -18.91,132.08l-16.23 83.86 -4646.97 0 2872.92 2872.92 -2468.14 0 -881.31 -881.29 0 -0.4 -483.38 -483.37 -0.4 0 -863.86 -863.86 0 -0.4 -85.94 -85.69 -195.18 -195.57 -323.26 -323.12 -41.1 -41.11c-46.52,-1.23 -91.22,-4.6 -133.99,-9.95 -57.97,-7.25 -114.79,-18.09 -170.11,-32.18 -61.05,-15.62 -121.88,-35.85 -181.99,-60.44 -60.88,-24.88 -118.52,-53.25 -172.6,-84.7 -29.24,-16.96 -57.59,-34.81 -84.96,-53.46 -26.02,-17.72 -53.03,-37.7 -80.9,-59.78 -16.36,-12.93 -30.1,-24.19 -41.47,-33.93 -14.36,-12.34 -27.98,-24.46 -40.5,-36.44 -140.38,-130.08 -253.83,-288.36 -331.15,-465.64 -74.56,-170.94 -115.83,-359.85 -115.63,-558.42 0.06,-45.51 2.24,-90.04 6.42,-133.4 4.37,-45.59 10.69,-89.35 18.8,-131.1l16.3 -83.86z"/>
   <path fill="#FFFFFF" stroke="#F2F2F4" stroke-width="19.75" stroke-miterlimit="22.9256" d="M5068.83 7647.66l0 0zm-3706.23 714.89l0 0zm2502.21 -1978.51l0 0zm434.98 -434.61l0 0zm762.02 -762.37l2468.14 0 -2374.44 2374.45 -0.4 0 -86.09 86.35 -412.12 412.11 4647.1 0 16.23 83.86c8.13,42.07 14.49,86.13 18.91,132.03 4.18,43.42 6.38,88.02 6.44,133.56 0.14,128.32 -17.11,252.7 -49.49,370.81 -33.56,122.48 -83.28,238.07 -146.6,344.23 -14.13,23.71 -27.54,44.91 -40.17,63.67 -13.87,20.58 -28.63,41.24 -44.18,61.84 -127.5,168.99 -292.9,308.2 -483.67,405.01 -183.41,93.06 -390.59,146.72 -610.36,149.76l-1.2 0.41 -7094.31 0 -16.29 -83.86c-8.11,-41.82 -14.43,-85.61 -18.8,-131.21 -4.18,-43.34 -6.36,-87.85 -6.42,-133.3 -0.21,-198.64 41.05,-387.57 115.62,-558.52 77.36,-177.36 190.89,-335.75 331.38,-465.86l0 -0.4c12.45,-11.47 25.93,-23.48 40.53,-35.95 11.12,-9.52 24.82,-20.72 40.81,-33.7 26.15,-20.77 53.21,-40.74 81.13,-59.79 27.4,-18.7 55.81,-36.58 85.12,-53.59 54.08,-31.4 111.72,-59.71 172.6,-84.6 60.7,-24.81 121.5,-45.12 181.99,-60.54l0.4 0c55.71,-14.12 112.44,-24.91 169.87,-32.07 42.72,-5.33 87.36,-8.66 133.8,-9.9l41.12 -41.12 0 -0.4 1636.53 -1636.11 434.59 -435 762.21 -762.17z"/>
  </g>
 </g>
</svg>
