<?xml version="1.0" standalone="no"?>
<!DOCTYPE svg PUBLIC "-//W3C//DTD SVG 20010904//EN"
 "http://www.w3.org/TR/2001/REC-SVG-20010904/DTD/svg10.dtd">
<svg version="1.0" xmlns="http://www.w3.org/2000/svg"
 width="1107.000000pt" height="1270.000000pt" viewBox="0 0 1107.000000 1270.000000"
 preserveAspectRatio="xMidYMid meet">

<g transform="translate(0.000000,1270.000000) scale(0.100000,-0.100000)"
fill="#000000" stroke="none">
<path d="M85 12688 c-12 -35 -35 -187 -45 -298 -35 -375 69 -800 277 -1122
148 -230 363 -441 588 -577 235 -142 530 -238 791 -257 l92 -7 1863 -1863
1864 -1864 1605 0 1605 0 -1865 1865 -1865 1865 3011 0 3010 0 17 88 c78 408
25 815 -153 1170 -290 578 -840 949 -1484 1002 -203 16 -9305 14 -9311 -2z"/>
<path d="M3650 4125 l-1865 -1865 -50 0 c-75 0 -238 -26 -348 -55 -196 -51
-381 -135 -563 -256 -136 -91 -358 -309 -456 -449 -121 -172 -225 -393 -273
-580 -71 -280 -80 -525 -28 -823 l17 -97 4705 2 4706 3 109 23 c556 118 1002
453 1260 944 192 366 248 763 169 1206 l-16 92 -3006 0 -3006 0 1860 1860
1860 1860 -1605 0 -1605 0 -1865 -1865z"/>
</g>
</svg>
